<?xml version="1.0" encoding="UTF-8" standalone="no"?>
<!DOCTYPE svg PUBLIC "-//W3C//DTD SVG 20010904//EN" "http://www.w3.org/TR/2001/REC-SVG-20010904/DTD/svg10.dtd">
<svg version="1.0" xmlns="http://www.w3.org/2000/svg" width="384.000000pt" height="384.000000pt" viewBox="0 0 384.000000 384.000000" preserveAspectRatio="xMidYMid meet"><script xmlns=""/>
<metadata>
Created by potrace 1.11, written by Peter Selinger 2001-2013
</metadata>
<g transform="translate(0.000000,384.000000) scale(0.100000,-0.100000)" fill="#ffffff" stroke="none">
<path d="M1650 3713 c-8 -3 -19 -13 -25 -22 -5 -9 -10 -145 -11 -311 -1 -218 -5 -303 -14 -325 -7 -16 -14 -33 -14 -38 -1 -4 -20 -29 -43 -56 -46 -53 -116 -91 -175 -96 -22 -1 -41 -5 -44 -7 -4 -4 -56 4 -99 15 -40 10 -106 53 -131 84 -16 20 -38 46 -49 58 -11 11 -38 43 -60 70 -21 28 -42 52 -45 55 -3 3 -25 30 -49 60 -25 30 -50 60 -55 65 -6 6 -27 30 -46 55 -36 47 -43 54 -76 82 -24 21 -112 40 -120 26 -3 -5 -11 -7 -17 -5 -17 6 -114 -31 -162 -62 -61 -38 -141 -127 -170 -188 -52 -111 -51 -78 -50 -1398 1 -676 5 -1246 9 -1265 4 -19 9 -39 10 -45 15 -59 98 -187 133 -206 13 -7 23 -16 23 -20 0 -14 123 -77 185 -95 56 -16 154 -17 1365 -17 1225 0 1309 1 1368 18 34 10 65 22 68 26 3 5 14 9 25 9 10 0 19 4 19 9 0 5 9 12 20 16 11 3 46 32 79 64 67 65 126 175 137 256 10 71 11 305 1 305 -5 0 -5 5 -1 12 11 17 12 78 2 84 -5 3 -5 10 -2 16 10 15 10 208 1 208 -5 0 -5 5 -1 12 10 16 12 78 3 84 -4 2 -4 17 -1 32 9 35 8 64 -1 80 -5 6 -5 12 0 12 4 0 8 20 8 45 0 25 -4 45 -8 45 -5 0 -5 5 -1 12 11 17 11 78 1 78 -4 0 -5 5 -1 12 10 16 11 98 1 98 -5 0 -5 5 -1 12 10 16 11 278 1 278 -5 0 -5 5 -1 12 11 17 12 78 2 84 -5 3 -5 10 -1 16 10 18 9 82 -2 90 -7 5 -7 8 0 8 11 0 12 140 1 158 -4 7 -4 12 1 12 4 0 8 20 8 45 0 25 -4 45 -8 45 -5 0 -5 5 -1 12 11 17 11 78 1 78 -4 0 -5 5 -1 12 10 15 10 101 0 116 -4 7 -4 12 1 12 4 0 8 20 8 45 0 25 -4 45 -8 45 -5 0 -5 5 -1 12 11 18 11 78 1 78 -6 0 -6 5 0 13 9 12 9 121 -1 192 -19 143 -119 280 -249 343 -86 42 -127 53 -187 51 -53 -3 -81 -22 -150 -106 -14 -16 -43 -52 -65 -79 -22 -26 -58 -69 -80 -94 -22 -25 -56 -66 -75 -90 -113 -141 -177 -190 -256 -193 -24 -1 -44 -6 -44 -10 0 -5 -9 -5 -20 -2 -11 4 -34 8 -49 10 -40 5 -119 47 -159 84 -18 17 -30 31 -25 31 4 0 3 4 -3 8 -32 20 -48 78 -59 201 -7 86 -46 212 -75 241 -6 6 -27 39 -41 65 -27 49 -228 192 -251 178 -5 -2 -8 1 -8 6 0 6 -3 10 -7 9 -5 -1 -30 3 -58 10 -70 17 -108 21 -125 15z m-30 -2074 c59 -28 112 -74 150 -129 40 -58 56 -71 101 -84 53 -15 138 -12 170 5 30 15 79 64 79 77 0 20 89 101 141 129 l54 28 390 2 c372 3 391 2 415 -16 l25 -20 0 -493 0 -493 -22 -22 c-23 -23 -24 -23 -410 -25 l-388 -3 -56 -28 c-54 -26 -99 -63 -146 -119 -12 -15 -19 -28 -17 -30 6 -6 -47 -52 -71 -62 -33 -13 -117 -16 -160 -5 -37 10 -95 57 -95 78 0 22 -103 113 -156 139 l-59 27 -385 2 c-212 1 -398 2 -413 3 -16 0 -38 10 -52 25 l-25 24 0 486 0 486 25 25 24 24 413 -2 413 -3 55 -26z"/>
</g>
</svg>
